<?xml version="1.0" encoding="UTF-8" standalone="no"?>
<!-- Created with Inkscape (http://www.inkscape.org/) -->

<svg
   id="svg5"
   version="1.1"
   viewBox="0 0 44.536484 23.395907"
   height="23.395906mm"
   width="44.536484mm"
   inkscape:version="1.1 (c68e22c387, 2021-05-23)"
   sodipodi:docname="logo.svg"
   xmlns:inkscape="http://www.inkscape.org/namespaces/inkscape"
   xmlns:sodipodi="http://sodipodi.sourceforge.net/DTD/sodipodi-0.dtd"
   xmlns="http://www.w3.org/2000/svg"
   xmlns:svg="http://www.w3.org/2000/svg">
  <sodipodi:namedview
     id="namedview7"
     pagecolor="#505050"
     bordercolor="#ffffff"
     borderopacity="1"
     inkscape:pageshadow="0"
     inkscape:pageopacity="0"
     inkscape:pagecheckerboard="1"
     inkscape:document-units="mm"
     showgrid="false"
     inkscape:zoom="2.8284271"
     inkscape:cx="90.863221"
     inkscape:cy="28.107494"
     inkscape:window-width="1360"
     inkscape:window-height="705"
     inkscape:window-x="-8"
     inkscape:window-y="-8"
     inkscape:window-maximized="1"
     inkscape:current-layer="layer1" />
  <defs
     id="defs2">
    <inkscape:path-effect
       effect="perspective-envelope"
       up_left_point="53.64,58.850861"
       up_right_point="111.02,64.05"
       down_left_point="53.24,71.00897"
       down_right_point="110.02,71.00897"
       id="path-effect18971"
       is_visible="true"
       lpeversion="1"
       deform_type="perspective"
       horizontal_mirror="false"
       vertical_mirror="false"
       overflow_perspective="false" />
    <inkscape:path-effect
       effect="envelope"
       id="path-effect17241"
       is_visible="true"
       lpeversion="1"
       yy="true"
       xx="true"
       bendpath1="M 53.247622,59.620184 H 111.00024"
       bendpath2="m 111.65775,54.09142 -0.65751,16.91755"
       bendpath3="m 55.727265,77.485192 c 0.227742,-3.046565 11.176091,-4.691837 26.27793,-6.628898 12.302877,-1.578047 29.412495,-4.385687 28.995045,0.152676"
       bendpath4="M 53.247622,59.620184 V 71.00897"
       bendpath3-nodetypes="csc"
       bendpath2-nodetypes="cc" />
    <inkscape:path-effect
       effect="perspective-envelope"
       up_left_point="53.64,58.850861"
       up_right_point="111.02,64.05"
       down_left_point="53.24,71.00897"
       down_right_point="110.02,71.00897"
       id="path-effect17239"
       is_visible="true"
       lpeversion="1"
       deform_type="perspective"
       horizontal_mirror="false"
       vertical_mirror="false"
       overflow_perspective="false" />
    <inkscape:path-effect
       effect="bounding_box"
       id="path-effect17062"
       is_visible="true"
       lpeversion="1"
       linkedpath=""
       visualbounds="false" />
    <inkscape:path-effect
       effect="bend_path"
       id="path-effect16653"
       is_visible="true"
       lpeversion="1"
       bendpath="m 53.837165,64.929916 10.8499,-2.342393 4.872908,-1.052015 11.052271,-2.67332 36.714466,-0.280927"
       prop_scale="1"
       scale_y_rel="false"
       vertical="false"
       hide_knot="false"
       bendpath-nodetypes="ccccc" />
    <inkscape:path-effect
       effect="bspline"
       id="path-effect13212"
       is_visible="true"
       lpeversion="1"
       weight="33.333333"
       steps="2"
       helper_size="0"
       apply_no_weight="true"
       apply_with_weight="true" />
    <inkscape:path-effect
       effect="lattice2"
       gridpoint0="53.837165,58.850861"
       gridpoint1="110.81765,58.850861"
       gridpoint2="53.837165,71.00897"
       gridpoint3="111.03443,64.629554"
       gridpoint4="68.082286,58.850861"
       gridpoint5="96.572529,58.850861"
       gridpoint6="68.50208,69.240149"
       gridpoint7="96.5104,70.155281"
       gridpoint8x9="82.327408,58.850861"
       gridpoint10x11="82.175345,69.493435"
       gridpoint12="53.837165,61.890388"
       gridpoint13="110.81765,61.890388"
       gridpoint14="53.837165,67.969443"
       gridpoint15="110.81765,67.969443"
       gridpoint16="68.082286,61.890388"
       gridpoint17="96.572529,61.890388"
       gridpoint18="68.082286,67.969443"
       gridpoint19="96.572529,67.969443"
       gridpoint20x21="82.327408,61.890388"
       gridpoint22x23="82.327408,67.969443"
       gridpoint24x26="53.837165,64.929916"
       gridpoint25x27="110.81765,64.929916"
       gridpoint28x30="68.082286,64.929916"
       gridpoint29x31="96.572529,64.929916"
       gridpoint32x33x34x35="82.327408,64.929916"
       id="path-effect10451"
       is_visible="true"
       lpeversion="1"
       horizontal_mirror="false"
       vertical_mirror="false"
       perimetral="false"
       live_update="true" />
    <inkscape:path-effect
       effect="pts2ellipse"
       id="path-effect10449"
       is_visible="true"
       lpeversion="1"
       method="steiner_inellipse"
       gen_arc="true"
       arc_other="false"
       slice_arc="false"
       gen_isometric_frame="false"
       draw_axes="false"
       gen_perspective_frame="false"
       draw_perspective_axes="false"
       rot_axes="0"
       draw_ori_path="false" />
    <inkscape:path-effect
       effect="envelope"
       id="path-effect9668"
       is_visible="true"
       lpeversion="1"
       yy="true"
       xx="true"
       bendpath1="M 53.837165,58.850861 H 110.81765"
       bendpath2="M 110.81765,58.850861 V 71.00897"
       bendpath3="M 53.837165,71.00897 H 110.81765"
       bendpath4="M 53.837165,58.850861 V 71.00897" />
    <inkscape:path-effect
       effect="bend_path"
       id="path-effect8876"
       is_visible="true"
       lpeversion="1"
       bendpath="m 108.30863,87.764121 h 24.73556 24.21853"
       prop_scale="1"
       scale_y_rel="false"
       vertical="false"
       hide_knot="false"
       bendpath-nodetypes="ccc" />
    <inkscape:path-effect
       effect="bspline"
       id="path-effect7509"
       is_visible="true"
       lpeversion="1"
       weight="33.333333"
       steps="2"
       helper_size="0"
       apply_no_weight="true"
       apply_with_weight="true" />
  </defs>
  <g
     inkscape:label="Layer 1"
     inkscape:groupmode="layer"
     id="layer1"
     transform="translate(-142.34535,-36.596523)">
    <g
       aria-label="FANON"
       id="g21691"
       style="font-size:16.9333px;font-family:Arial;-inkscape-font-specification:Arial;fill:#4292ff;fill-opacity:1;stroke-width:0.264583"
       transform="matrix(0.75172773,0,0,1.0315432,102.31764,-24.904275)">
      <path
         style="color:#000000;-inkscape-font-specification:'Exo 2 Heavy Italic';fill:#4292ff;fill-opacity:1;-inkscape-stroke:none"
         d="m 60.742122,59.65898 c 1.565368,0.139808 3.117503,0.289136 4.655855,0.447535 1.500492,0.154499 2.780487,0.33537 3.852462,0.542536 l -0.702799,2.254931 -5.632874,-0.382766 c -0.463366,-0.03149 -0.802536,-0.0063 -1.015397,0.07589 -0.212968,0.07174 -0.351835,0.229189 -0.416118,0.472181 l -2.157597,7.718472 -6.078032,-0.01046 2.516314,-8.961661 c 0.220887,-0.784875 0.796458,-1.371721 1.718295,-1.756934 0.910817,-0.380609 2.001,-0.512154 3.259891,-0.399718 z m -5.059297,4.339506 11.48221,0.609173 -0.558824,2.171781 -11.612958,-0.405205 z"
         id="path21681" />
      <path
         style="color:#000000;-inkscape-font-specification:'Exo 2 Heavy Italic';fill:#4292ff;fill-opacity:1;-inkscape-stroke:none"
         d="m 78.242078,61.278709 c 0.343134,0.03047 0.638433,0.136581 0.886496,0.317744 0.246728,0.180188 0.379022,0.391877 0.397852,0.635494 L 80.494261,70.8242 76.306712,70.817 76.064373,64.483759 c -0.01288,-0.190384 -0.01247,-0.37543 0.0012,-0.555057 0.01373,-0.17975 0.03431,-0.359171 0.06173,-0.538227 l -0.577246,-0.03937 c -0.05293,0.149583 -0.121123,0.317326 -0.204616,0.503282 -0.06896,0.177389 -0.166039,0.357912 -0.291341,0.541704 l -4.083952,6.411725 -5.172717,-0.0089 6.709754,-9.254749 c 0.163936,-0.244068 0.39594,-0.417478 0.695174,-0.520163 0.297872,-0.102216 0.632832,-0.136587 1.004074,-0.103622 z m 0.215974,5.405938 -0.526894,2.1507 -7.596681,-0.15026 0.577657,-2.298809 z"
         id="path21683" />
      <path
         style="color:#000000;-inkscape-font-specification:'Exo 2 Heavy Italic';fill:#4292ff;fill-opacity:1;-inkscape-stroke:none"
         d="m 93.944803,62.673045 -2.089668,7.330257 c -0.08122,0.291878 -0.223545,0.504419 -0.427518,0.637985 -0.194642,0.134047 -0.47845,0.200911 -0.853116,0.200266 l -1.110387,-0.0019 c -0.354833,-6.11e-4 -0.604635,-0.07411 -0.747886,-0.220906 -0.133193,-0.147294 -0.261472,-0.348222 -0.38485,-0.603152 L 86.697966,67.010469 C 86.584149,66.802086 86.494349,66.572755 86.428724,66.322503 86.363744,66.063056 86.304612,65.798915 86.251367,65.5301 l -0.11837,-0.0064 c -0.015,0.27421 -0.04126,0.547523 -0.07877,0.82003 -0.03666,0.26376 -0.09666,0.534906 -0.180036,0.813602 l -1.083085,3.674261 -3.522422,-0.0061 2.30507,-8.117852 c 0.08955,-0.323985 0.248514,-0.55246 0.476279,-0.685046 0.238779,-0.131076 0.575507,-0.177101 1.008119,-0.138687 l 1.242263,0.110307 c 0.384891,0.03418 0.646875,0.140117 0.787742,0.317515 0.14118,0.168148 0.276805,0.387095 0.406868,0.656481 l 1.603209,2.96569 c 0.10626,0.21353 0.199898,0.442358 0.280998,0.686464 0.09222,0.235576 0.169839,0.506908 0.232939,0.813856 l 0.125524,0.0046 c -0.0026,-0.279493 0.0076,-0.530102 0.03044,-0.751611 0.03337,-0.221213 0.0833,-0.450025 0.149787,-0.686339 l 1.034037,-3.593586 z"
         id="path21685" />
      <path
         style="color:#000000;-inkscape-font-specification:'Exo 2 Heavy Italic';fill:#4292ff;fill-opacity:1;-inkscape-stroke:none"
         d="m 99.258806,62.984331 c 0.975484,0.08839 1.732454,0.27694 2.281014,0.564016 0.54083,0.283025 0.87184,0.721697 0.99808,1.315908 0.13423,0.583449 0.0596,1.38531 -0.22314,2.408309 -0.20814,0.752742 -0.45142,1.371955 -0.73053,1.858961 -0.2719,0.488659 -0.59564,0.867229 -0.97252,1.136001 -0.37946,0.270614 -0.830814,0.463453 -1.356474,0.578075 -0.522143,0.108612 -1.134123,0.163369 -1.83983,0.163369 -1.057153,0 -1.89589,-0.121055 -2.504211,-0.365841 -0.607072,-0.256047 -0.983705,-0.69554 -1.12391,-1.318853 -0.141174,-0.62762 -0.05901,-1.496208 0.247326,-2.602865 0.235686,-0.818118 0.507445,-1.487367 0.814509,-2.006406 0.306961,-0.525224 0.669839,-0.925451 1.087131,-1.200465 0.414333,-0.273065 0.897103,-0.443735 1.445811,-0.512869 0.54344,-0.07604 1.170329,-0.08135 1.876744,-0.01734 z m -0.245954,1.819367 c -0.312436,-0.02183 -0.572966,0.02099 -0.780534,0.128881 -0.199538,0.108898 -0.376968,0.326856 -0.53189,0.653887 -0.155119,0.327447 -0.333705,0.814533 -0.535645,1.461061 -0.177834,0.594324 -0.28048,1.046767 -0.307903,1.356983 -0.02739,0.309782 0.02839,0.522795 0.166894,0.639036 0.138871,0.108302 0.363045,0.165385 0.671328,0.171521 0.332336,0.0066 0.595781,-0.04753 0.791639,-0.162097 0.195156,-0.114153 0.367889,-0.332007 0.518583,-0.653572 0.159933,-0.32826 0.3334,-0.803805 0.520562,-1.426951 0.17324,-0.579157 0.273775,-1.017059 0.301637,-1.314023 0.02881,-0.304787 -0.02202,-0.517877 -0.152889,-0.639293 -0.131353,-0.121869 -0.351528,-0.193756 -0.661782,-0.215433 z"
         id="path21687" />
      <path
         style="color:#000000;-inkscape-font-specification:'Exo 2 Heavy Italic';fill:#4292ff;fill-opacity:1;-inkscape-stroke:none"
         d="m 111.00024,64.187496 -1.72136,5.998395 c -0.0672,0.238879 -0.17192,0.412894 -0.31436,0.522288 -0.13614,0.109716 -0.32885,0.164468 -0.57901,0.164037 l -0.73936,-0.0013 c -0.23561,-4.06e-4 -0.39803,-0.06018 -0.48642,-0.179585 -0.0816,-0.119738 -0.15758,-0.283008 -0.2278,-0.490054 l -0.94143,-2.428008 c -0.0653,-0.167515 -0.11389,-0.351979 -0.14564,-0.553377 -0.0309,-0.20871 -0.0577,-0.421138 -0.0805,-0.63727 l -0.0772,-0.0042 c -0.0222,0.220963 -0.0518,0.441342 -0.0887,0.661196 -0.0359,0.212833 -0.0875,0.431798 -0.15473,0.657002 l -0.8756,2.968963 -2.28495,-0.0039 1.86501,-6.515689 c 0.0729,-0.259962 0.18631,-0.444546 0.34007,-0.5535 0.16096,-0.107972 0.38185,-0.149352 0.66161,-0.124511 l 0.80589,0.07156 c 0.25047,0.02224 0.41746,0.103824 0.50193,0.244533 0.0852,0.133368 0.16446,0.307772 0.23791,0.522979 l 0.92581,2.379067 c 0.0609,0.172213 0.11282,0.357029 0.15576,0.554433 0.0507,0.190525 0.0902,0.410281 0.11851,0.659174 l 0.0832,0.003 c 0.0106,-0.227014 0.0285,-0.430584 0.0535,-0.610566 0.0319,-0.179788 0.0752,-0.365839 0.12982,-0.558092 l 0.84548,-2.923563 z"
         id="path21689" />
    </g>
    <g
       aria-label="FANON"
       id="g18953"
       style="font-size:16.9333px;font-family:Arial;-inkscape-font-specification:Arial;fill:#f5ff42;fill-opacity:1;stroke-width:0.264583"
       transform="matrix(0.75172773,0,0,1.0155748,102.84681,-23.77037)">
      <path
         style="color:#000000;-inkscape-font-specification:'Exo 2 Heavy Italic';fill:#f5ff42;fill-opacity:1;-inkscape-stroke:none"
         d="m 60.742122,59.65898 c 1.565368,0.139808 3.117503,0.289136 4.655855,0.447535 1.500492,0.154499 2.780487,0.33537 3.852462,0.542536 l -0.702799,2.254931 -5.632874,-0.382766 c -0.463366,-0.03149 -0.802536,-0.0063 -1.015397,0.07589 -0.212968,0.07174 -0.351835,0.229189 -0.416118,0.472181 l -2.157597,7.718472 -6.078032,-0.01046 2.516314,-8.961661 c 0.220887,-0.784875 0.796458,-1.371721 1.718295,-1.756934 0.910817,-0.380609 2.001,-0.512154 3.259891,-0.399718 z m -5.059297,4.339506 11.48221,0.609173 -0.558824,2.171781 -11.612958,-0.405205 z"
         id="path18943" />
      <path
         style="color:#000000;-inkscape-font-specification:'Exo 2 Heavy Italic';fill:#f5ff42;fill-opacity:1;-inkscape-stroke:none"
         d="m 78.242078,61.278709 c 0.343134,0.03047 0.638433,0.136581 0.886496,0.317744 0.246728,0.180188 0.379022,0.391877 0.397852,0.635494 L 80.494261,70.8242 76.306712,70.817 76.064373,64.483759 c -0.01288,-0.190384 -0.01247,-0.37543 0.0012,-0.555057 0.01373,-0.17975 0.03431,-0.359171 0.06173,-0.538227 l -0.577246,-0.03937 c -0.05293,0.149583 -0.121123,0.317326 -0.204616,0.503282 -0.06896,0.177389 -0.166039,0.357912 -0.291341,0.541704 l -4.083952,6.411725 -5.172717,-0.0089 6.709754,-9.254749 c 0.163936,-0.244068 0.39594,-0.417478 0.695174,-0.520163 0.297872,-0.102216 0.632832,-0.136587 1.004074,-0.103622 z m 0.215974,5.405938 -0.526894,2.1507 -7.596681,-0.15026 0.577657,-2.298809 z"
         id="path18945" />
      <path
         style="color:#000000;-inkscape-font-specification:'Exo 2 Heavy Italic';fill:#f5ff42;fill-opacity:1;-inkscape-stroke:none"
         d="m 93.944803,62.673045 -2.089668,7.330257 c -0.08122,0.291878 -0.223545,0.504419 -0.427518,0.637985 -0.194642,0.134047 -0.47845,0.200911 -0.853116,0.200266 l -1.110387,-0.0019 c -0.354833,-6.11e-4 -0.604635,-0.07411 -0.747886,-0.220906 -0.133193,-0.147294 -0.261472,-0.348222 -0.38485,-0.603152 L 86.697966,67.010469 C 86.584149,66.802086 86.494349,66.572755 86.428724,66.322503 86.363744,66.063056 86.304612,65.798915 86.251367,65.5301 l -0.11837,-0.0064 c -0.015,0.27421 -0.04126,0.547523 -0.07877,0.82003 -0.03666,0.26376 -0.09666,0.534906 -0.180036,0.813602 l -1.083085,3.674261 -3.522422,-0.0061 2.30507,-8.117852 c 0.08955,-0.323985 0.248514,-0.55246 0.476279,-0.685046 0.238779,-0.131076 0.575507,-0.177101 1.008119,-0.138687 l 1.242263,0.110307 c 0.384891,0.03418 0.646875,0.140117 0.787742,0.317515 0.14118,0.168148 0.276805,0.387095 0.406868,0.656481 l 1.603209,2.96569 c 0.10626,0.21353 0.199898,0.442358 0.280998,0.686464 0.09222,0.235576 0.169839,0.506908 0.232939,0.813856 l 0.125524,0.0046 c -0.0026,-0.279493 0.0076,-0.530102 0.03044,-0.751611 0.03337,-0.221213 0.0833,-0.450025 0.149787,-0.686339 l 1.034037,-3.593586 z"
         id="path18947" />
      <path
         style="color:#000000;-inkscape-font-specification:'Exo 2 Heavy Italic';fill:#f5ff42;fill-opacity:1;-inkscape-stroke:none"
         d="m 99.258806,62.984331 c 0.975484,0.08839 1.732454,0.27694 2.281014,0.564016 0.54083,0.283025 0.87184,0.721697 0.99808,1.315908 0.13423,0.583449 0.0596,1.38531 -0.22314,2.408309 -0.20814,0.752742 -0.45142,1.371955 -0.73053,1.858961 -0.2719,0.488659 -0.59564,0.867229 -0.97252,1.136001 -0.37946,0.270614 -0.830814,0.463453 -1.356474,0.578075 -0.522143,0.108612 -1.134123,0.163369 -1.83983,0.163369 -1.057153,0 -1.89589,-0.121055 -2.504211,-0.365841 -0.607072,-0.256047 -0.983705,-0.69554 -1.12391,-1.318853 -0.141174,-0.62762 -0.05901,-1.496208 0.247326,-2.602865 0.235686,-0.818118 0.507445,-1.487367 0.814509,-2.006406 0.306961,-0.525224 0.669839,-0.925451 1.087131,-1.200465 0.414333,-0.273065 0.897103,-0.443735 1.445811,-0.512869 0.54344,-0.07604 1.170329,-0.08135 1.876744,-0.01734 z m -0.245954,1.819367 c -0.312436,-0.02183 -0.572966,0.02099 -0.780534,0.128881 -0.199538,0.108898 -0.376968,0.326856 -0.53189,0.653887 -0.155119,0.327447 -0.333705,0.814533 -0.535645,1.461061 -0.177834,0.594324 -0.28048,1.046767 -0.307903,1.356983 -0.02739,0.309782 0.02839,0.522795 0.166894,0.639036 0.138871,0.108302 0.363045,0.165385 0.671328,0.171521 0.332336,0.0066 0.595781,-0.04753 0.791639,-0.162097 0.195156,-0.114153 0.367889,-0.332007 0.518583,-0.653572 0.159933,-0.32826 0.3334,-0.803805 0.520562,-1.426951 0.17324,-0.579157 0.273775,-1.017059 0.301637,-1.314023 0.02881,-0.304787 -0.02202,-0.517877 -0.152889,-0.639293 -0.131353,-0.121869 -0.351528,-0.193756 -0.661782,-0.215433 z"
         id="path18949" />
      <path
         style="color:#000000;-inkscape-font-specification:'Exo 2 Heavy Italic';fill:#f5ff42;fill-opacity:1;-inkscape-stroke:none"
         d="m 111.00024,64.187496 -1.72136,5.998395 c -0.0672,0.238879 -0.17192,0.412894 -0.31436,0.522288 -0.13614,0.109716 -0.32885,0.164468 -0.57901,0.164037 l -0.73936,-0.0013 c -0.23561,-4.06e-4 -0.39803,-0.06018 -0.48642,-0.179585 -0.0816,-0.119738 -0.15758,-0.283008 -0.2278,-0.490054 l -0.94143,-2.428008 c -0.0653,-0.167515 -0.11389,-0.351979 -0.14564,-0.553377 -0.0309,-0.20871 -0.0577,-0.421138 -0.0805,-0.63727 l -0.0772,-0.0042 c -0.0222,0.220963 -0.0518,0.441342 -0.0887,0.661196 -0.0359,0.212833 -0.0875,0.431798 -0.15473,0.657002 l -0.8756,2.968963 -2.28495,-0.0039 1.86501,-6.515689 c 0.0729,-0.259962 0.18631,-0.444546 0.34007,-0.5535 0.16096,-0.107972 0.38185,-0.149352 0.66161,-0.124511 l 0.80589,0.07156 c 0.25047,0.02224 0.41746,0.103824 0.50193,0.244533 0.0852,0.133368 0.16446,0.307772 0.23791,0.522979 l 0.92581,2.379067 c 0.0609,0.172213 0.11282,0.357029 0.15576,0.554433 0.0507,0.190525 0.0902,0.410281 0.11851,0.659174 l 0.0832,0.003 c 0.0106,-0.227014 0.0285,-0.430584 0.0535,-0.610566 0.0319,-0.179788 0.0752,-0.365839 0.12982,-0.558092 l 0.84548,-2.923563 z"
         id="path18951" />
    </g>
    <g
       id="g24944"
       transform="translate(10.720948,-11.052729)">
      <path
         style="color:#000000;fill:#42ff44;stroke-width:3.96899;stroke-linejoin:round;-inkscape-stroke:none;paint-order:stroke fill markers"
         d="m 143.14043,61.159718 h 22.62668 c 2.73826,0 4.94272,2.204453 4.94272,4.94272 0,2.738267 -2.20446,4.94272 -4.94272,4.94272 h -22.62668 c -2.73827,0 -4.94272,-2.204453 -4.94272,-4.94272 0,-2.738267 2.20445,-4.94272 4.94272,-4.94272 z"
         id="rect18955" />
      <g
         aria-label="WIKI"
         id="g18965"
         style="font-size:8.81944px;font-family:Arial;-inkscape-font-specification:Arial;fill:#ffffff;stroke-width:0.264583"
         transform="translate(59.88304,-1.118567)">
        <path
           style="color:#000000;-inkscape-font-specification:'Exo 2 Heavy';-inkscape-stroke:none"
           d="m 93.150817,64.178296 -0.758471,5.573887 q -0.03528,0.229305 -0.220486,0.370416 -0.185209,0.141111 -0.432153,0.141111 H 90.11693 q -0.246944,0 -0.440972,-0.141111 -0.185208,-0.141111 -0.211666,-0.370416 l -0.414514,-3.360207 q -0.02646,-0.220486 -0.0441,-0.440972 -0.0088,-0.229306 -0.02646,-0.449792 h -0.14993 q -0.0088,0.220486 -0.02646,0.449792 -0.01764,0.229305 -0.0441,0.449791 l -0.405694,3.351388 q -0.02646,0.229305 -0.220486,0.370416 -0.185208,0.141111 -0.432152,0.141111 h -1.631597 q -0.246944,0 -0.432152,-0.141111 -0.185209,-0.141111 -0.220486,-0.370416 l -0.758472,-5.573887 h 1.88736 l 0.30868,3.730624 q 0.01764,0.220486 0.02646,0.476249 0.0088,0.246945 0.0088,0.537986 H 87.0301 q 0.03528,-0.229305 0.07056,-0.502708 0.0441,-0.282222 0.07055,-0.520347 l 0.405694,-3.157359 q 0.02646,-0.255764 0.202848,-0.405695 0.185208,-0.15875 0.440971,-0.15875 h 1.367014 q 0.255763,0 0.432152,0.15875 0.176389,0.149931 0.211667,0.405695 l 0.414513,3.174998 q 0.02646,0.238125 0.06174,0.502708 0.03528,0.264583 0.07056,0.502708 h 0.141111 q 0,-0.246944 0.01764,-0.511527 0.01764,-0.264584 0.02646,-0.48507 l 0.299861,-3.748262 z"
           id="path18957" />
        <path
           style="color:#000000;-inkscape-font-specification:'Exo 2 Heavy';-inkscape-stroke:none"
           d="M 95.690801,64.178296 V 70.26371 H 93.794622 V 64.178296 Z"
           id="path18959" />
        <path
           style="color:#000000;-inkscape-font-specification:'Exo 2 Heavy';-inkscape-stroke:none"
           d="m 102.11135,64.178296 -1.40229,2.381249 q -0.11466,0.202847 -0.26459,0.343958 -0.14993,0.141111 -0.2734,0.194028 v 0.03528 q 0.12347,0.05292 0.30868,0.229305 0.19403,0.16757 0.29986,0.370417 l 1.41993,2.531179 h -2.12548 l -1.613962,-3.183818 1.596322,-2.901596 z m -3.571877,0 v 1.534583 q 0,0.335139 -0.07056,0.696736 -0.06174,0.352777 -0.202847,0.661458 0.105834,0.282222 0.185208,0.617361 0.08819,0.326319 0.08819,0.590902 v 1.984374 h -1.913819 v -6.085414 z m 0.47625,2.310694 v 1.234721 H 97.992668 V 66.48899 Z"
           id="path18961" />
        <path
           style="color:#000000;-inkscape-font-specification:'Exo 2 Heavy';-inkscape-stroke:none"
           d="m 104.48376,64.178296 v 6.085414 h -1.89618 v -6.085414 z"
           id="path18963" />
      </g>
    </g>
    <g
       aria-label="FANON"
       id="g19061"
       style="font-size:16.9333px;font-family:Arial;-inkscape-font-specification:Arial;fill:#ff4242;fill-opacity:1;stroke-width:0.264583"
       transform="matrix(0.75172773,0,0,0.98340114,103.43988,-21.481177)">
      <path
         style="color:#000000;-inkscape-font-specification:'Exo 2 Heavy Italic';fill:#ff4242;fill-opacity:1;-inkscape-stroke:none"
         d="m 60.742122,59.65898 c 1.565368,0.139808 3.117503,0.289136 4.655855,0.447535 1.500492,0.154499 2.780487,0.33537 3.852462,0.542536 l -0.702799,2.254931 -5.632874,-0.382766 c -0.463366,-0.03149 -0.802536,-0.0063 -1.015397,0.07589 -0.212968,0.07174 -0.351835,0.229189 -0.416118,0.472181 l -2.157597,7.718472 -6.078032,-0.01046 2.516314,-8.961661 c 0.220887,-0.784875 0.796458,-1.371721 1.718295,-1.756934 0.910817,-0.380609 2.001,-0.512154 3.259891,-0.399718 z m -5.059297,4.339506 11.48221,0.609173 -0.558824,2.171781 -11.612958,-0.405205 z"
         id="path19051" />
      <path
         style="color:#000000;-inkscape-font-specification:'Exo 2 Heavy Italic';fill:#ff4242;fill-opacity:1;-inkscape-stroke:none"
         d="m 78.242078,61.278709 c 0.343134,0.03047 0.638433,0.136581 0.886496,0.317744 0.246728,0.180188 0.379022,0.391877 0.397852,0.635494 L 80.494261,70.8242 76.306712,70.817 76.064373,64.483759 c -0.01288,-0.190384 -0.01247,-0.37543 0.0012,-0.555057 0.01373,-0.17975 0.03431,-0.359171 0.06173,-0.538227 l -0.577246,-0.03937 c -0.05293,0.149583 -0.121123,0.317326 -0.204616,0.503282 -0.06896,0.177389 -0.166039,0.357912 -0.291341,0.541704 l -4.083952,6.411725 -5.172717,-0.0089 6.709754,-9.254749 c 0.163936,-0.244068 0.39594,-0.417478 0.695174,-0.520163 0.297872,-0.102216 0.632832,-0.136587 1.004074,-0.103622 z m 0.215974,5.405938 -0.526894,2.1507 -7.596681,-0.15026 0.577657,-2.298809 z"
         id="path19053" />
      <path
         style="color:#000000;-inkscape-font-specification:'Exo 2 Heavy Italic';fill:#ff4242;fill-opacity:1;-inkscape-stroke:none"
         d="m 93.944803,62.673045 -2.089668,7.330257 c -0.08122,0.291878 -0.223545,0.504419 -0.427518,0.637985 -0.194642,0.134047 -0.47845,0.200911 -0.853116,0.200266 l -1.110387,-0.0019 c -0.354833,-6.11e-4 -0.604635,-0.07411 -0.747886,-0.220906 -0.133193,-0.147294 -0.261472,-0.348222 -0.38485,-0.603152 L 86.697966,67.010469 C 86.584149,66.802086 86.494349,66.572755 86.428724,66.322503 86.363744,66.063056 86.304612,65.798915 86.251367,65.5301 l -0.11837,-0.0064 c -0.015,0.27421 -0.04126,0.547523 -0.07877,0.82003 -0.03666,0.26376 -0.09666,0.534906 -0.180036,0.813602 l -1.083085,3.674261 -3.522422,-0.0061 2.30507,-8.117852 c 0.08955,-0.323985 0.248514,-0.55246 0.476279,-0.685046 0.238779,-0.131076 0.575507,-0.177101 1.008119,-0.138687 l 1.242263,0.110307 c 0.384891,0.03418 0.646875,0.140117 0.787742,0.317515 0.14118,0.168148 0.276805,0.387095 0.406868,0.656481 l 1.603209,2.96569 c 0.10626,0.21353 0.199898,0.442358 0.280998,0.686464 0.09222,0.235576 0.169839,0.506908 0.232939,0.813856 l 0.125524,0.0046 c -0.0026,-0.279493 0.0076,-0.530102 0.03044,-0.751611 0.03337,-0.221213 0.0833,-0.450025 0.149787,-0.686339 l 1.034037,-3.593586 z"
         id="path19055" />
      <path
         style="color:#000000;-inkscape-font-specification:'Exo 2 Heavy Italic';fill:#ff4242;fill-opacity:1;-inkscape-stroke:none"
         d="m 99.258806,62.984331 c 0.975484,0.08839 1.732454,0.27694 2.281014,0.564016 0.54083,0.283025 0.87184,0.721697 0.99808,1.315908 0.13423,0.583449 0.0596,1.38531 -0.22314,2.408309 -0.20814,0.752742 -0.45142,1.371955 -0.73053,1.858961 -0.2719,0.488659 -0.59564,0.867229 -0.97252,1.136001 -0.37946,0.270614 -0.830814,0.463453 -1.356474,0.578075 -0.522143,0.108612 -1.134123,0.163369 -1.83983,0.163369 -1.057153,0 -1.89589,-0.121055 -2.504211,-0.365841 -0.607072,-0.256047 -0.983705,-0.69554 -1.12391,-1.318853 -0.141174,-0.62762 -0.05901,-1.496208 0.247326,-2.602865 0.235686,-0.818118 0.507445,-1.487367 0.814509,-2.006406 0.306961,-0.525224 0.669839,-0.925451 1.087131,-1.200465 0.414333,-0.273065 0.897103,-0.443735 1.445811,-0.512869 0.54344,-0.07604 1.170329,-0.08135 1.876744,-0.01734 z m -0.245954,1.819367 c -0.312436,-0.02183 -0.572966,0.02099 -0.780534,0.128881 -0.199538,0.108898 -0.376968,0.326856 -0.53189,0.653887 -0.155119,0.327447 -0.333705,0.814533 -0.535645,1.461061 -0.177834,0.594324 -0.28048,1.046767 -0.307903,1.356983 -0.02739,0.309782 0.02839,0.522795 0.166894,0.639036 0.138871,0.108302 0.363045,0.165385 0.671328,0.171521 0.332336,0.0066 0.595781,-0.04753 0.791639,-0.162097 0.195156,-0.114153 0.367889,-0.332007 0.518583,-0.653572 0.159933,-0.32826 0.3334,-0.803805 0.520562,-1.426951 0.17324,-0.579157 0.273775,-1.017059 0.301637,-1.314023 0.02881,-0.304787 -0.02202,-0.517877 -0.152889,-0.639293 -0.131353,-0.121869 -0.351528,-0.193756 -0.661782,-0.215433 z"
         id="path19057" />
      <path
         style="color:#000000;-inkscape-font-specification:'Exo 2 Heavy Italic';fill:#ff4242;fill-opacity:1;-inkscape-stroke:none"
         d="m 111.00024,64.187496 -1.72136,5.998395 c -0.0672,0.238879 -0.17192,0.412894 -0.31436,0.522288 -0.13614,0.109716 -0.32885,0.164468 -0.57901,0.164037 l -0.73936,-0.0013 c -0.23561,-4.06e-4 -0.39803,-0.06018 -0.48642,-0.179585 -0.0816,-0.119738 -0.15758,-0.283008 -0.2278,-0.490054 l -0.94143,-2.428008 c -0.0653,-0.167515 -0.11389,-0.351979 -0.14564,-0.553377 -0.0309,-0.20871 -0.0577,-0.421138 -0.0805,-0.63727 l -0.0772,-0.0042 c -0.0222,0.220963 -0.0518,0.441342 -0.0887,0.661196 -0.0359,0.212833 -0.0875,0.431798 -0.15473,0.657002 l -0.8756,2.968963 -2.28495,-0.0039 1.86501,-6.515689 c 0.0729,-0.259962 0.18631,-0.444546 0.34007,-0.5535 0.16096,-0.107972 0.38185,-0.149352 0.66161,-0.124511 l 0.80589,0.07156 c 0.25047,0.02224 0.41746,0.103824 0.50193,0.244533 0.0852,0.133368 0.16446,0.307772 0.23791,0.522979 l 0.92581,2.379067 c 0.0609,0.172213 0.11282,0.357029 0.15576,0.554433 0.0507,0.190525 0.0902,0.410281 0.11851,0.659174 l 0.0832,0.003 c 0.0106,-0.227014 0.0285,-0.430584 0.0535,-0.610566 0.0319,-0.179788 0.0752,-0.365839 0.12982,-0.558092 l 0.84548,-2.923563 z"
         id="path19059" />
    </g>
  </g>
</svg>
