<?xml version="1.0" encoding="UTF-8" standalone="no"?>
<svg
   version="1.1"
   id="svg8"
   sodipodi:docname="logo.svg"
   inkscape:version="1.1 (c68e22c387, 2021-05-23)"
   x="0px"
   y="0px"
   width="7344.2441"
   height="1024.0005"
   viewBox="507.842 1005 7344.2442 1024.0005"
   enable-background="new 507.842 1005 483.748 483.749"
   xml:space="preserve"
   xmlns:inkscape="http://www.inkscape.org/namespaces/inkscape"
   xmlns:sodipodi="http://sodipodi.sourceforge.net/DTD/sodipodi-0.dtd"
   xmlns="http://www.w3.org/2000/svg"
   xmlns:svg="http://www.w3.org/2000/svg"
   xmlns:rdf="http://www.w3.org/1999/02/22-rdf-syntax-ns#"
   xmlns:cc="http://creativecommons.org/ns#"
   xmlns:dc="http://purl.org/dc/elements/1.1/"><metadata
   id="metadata29"><rdf:RDF><cc:Work
       rdf:about=""><dc:format>image/svg+xml</dc:format><dc:type
         rdf:resource="http://purl.org/dc/dcmitype/StillImage" /><dc:title /></cc:Work></rdf:RDF></metadata><defs
   id="defs27"><clipPath
     id="_clipPath_WRJD1ygVIv1nWnFRDYRjyKtkzFFn2rIv"><rect
       id="rect33"
       height="1024"
       width="1024"
       x="0"
       y="0" /></clipPath><clipPath
     id="_clipPath_HjdtK2oLDBtUPWFazNSlyezF6oMJJLl9"><rect
       id="rect933"
       height="1024"
       width="1024"
       x="0"
       y="0" /></clipPath></defs><sodipodi:namedview
   pagecolor="#ffffff"
   bordercolor="#666666"
   borderopacity="1"
   objecttolerance="10"
   gridtolerance="10"
   guidetolerance="10"
   inkscape:pageopacity="0"
   inkscape:pageshadow="2"
   inkscape:window-width="1360"
   inkscape:window-height="705"
   id="namedview25"
   showgrid="false"
   showguides="true"
   inkscape:guide-bbox="true"
   inkscape:zoom="0.088388348"
   inkscape:cx="3773.1218"
   inkscape:cy="-543.05801"
   inkscape:window-x="-8"
   inkscape:window-y="-8"
   inkscape:window-maximized="1"
   inkscape:current-layer="svg8"
   inkscape:document-rotation="0"
   inkscape:pagecheckerboard="0"><sodipodi:guide
     position="864.438,1327.6651"
     orientation="0,1"
     id="guide1038"
     inkscape:locked="false" /></sodipodi:namedview>
<g
   style="isolation:isolate"
   id="g975"
   transform="matrix(1.3333334,0,0,1.3333334,462.25736,663.66768)"><g
     id="g955"
     clip-path="url(#_clipPath_HjdtK2oLDBtUPWFazNSlyezF6oMJJLl9)"><path
       style="fill:#ffffff;fill-rule:evenodd;stroke-width:0.750111"
       d="m 260.77929,256.00042 c -14.74108,-0.0944 -28.69896,5.40508 -42.15636,17.49611 -53.51091,48.07816 -48.37362,163.95659 21.9671,278.50821 4.08082,0.0789 8.5807,-0.10651 12.51747,0.0308 2.15275,-6.08345 4.78889,-13.42665 8.09702,-21.96271 7.40081,-19.09649 16.6284,-41.31809 27.13254,-57.26918 11.74976,-17.84533 24.64442,-43.95934 50.8742,-58.07131 l 9.17713,-4.93688 8.85409,5.49947 c 3.19985,1.98807 6.38052,4.00708 9.54522,6.05216 -30.9057,11.55508 -47.67613,37.29963 -63.40485,61.34131 0.17253,-0.21528 33.29336,-41.47001 59.39645,-39.49947 29.1373,2.20683 49.99736,65.29917 49.99736,65.29917 0,0 8.06681,-21.19529 25.03165,-33.95056 34.12142,29.38353 65.7817,62.69353 94.96333,99.86506 -4.12507,50.03725 -25.92276,108.99055 -25.92276,108.99055 -34.84264,-4.17886 -79.43957,19.5124 -79.43957,19.5124 0,0 -36.06253,-65.41022 -62.51592,-90.989 -0.42607,-0.41181 -0.85787,-0.82004 -1.29219,-1.22735 0.43432,-0.38406 0.86532,-0.78767 1.29438,-1.20098 8.53176,-24.90517 16.67136,-44.38548 23.74715,-59.32393 -0.20928,-13.98131 -4.8089,-25.2323 -13.42617,-29.54769 -2.31184,-1.15442 -4.76542,-1.74076 -7.29929,-1.80752 -13.69177,-0.3443 -29.79989,14.55642 -38.97975,37.38979 -4.4744,10.30202 -6.69813,20.79011 -6.87515,30.22125 -28.32043,-11.30867 -56.31983,-15.91274 -56.31983,-15.91274 0,0 -114.35387,-11.15883 -181.734058,72.471 -37.19648,46.16253 -57.064197,119.35044 -47.385521,177.8388 19.031055,115.02646 106.473209,159.43402 106.473209,159.43402 20.76954,-14.5148 39.59203,-29.54937 58.47456,-38.5556 12.42236,-5.84126 27.3586,-10.58292 44.54404,-13.73604 34.62181,-6.44489 70.9404,-11.36618 96.65988,-21.55725 -2.61759,-22.48164 1.08526,-43.02512 7.1114,-59.08989 5.72426,-15.07645 16.15283,-32.6862 30.38497,-50.18635 -6.7025,17.80186 -14.07745,35.40916 -18.46195,53.9761 -3.1123,14.77317 -6.20664,38.01326 -2.01959,60.9864 2.14851,10.33417 9.02491,23.24369 20.12114,33.92199 11.28553,8.95435 29.3862,20.90906 46.01642,28.99609 -27.31693,-5.44745 -35.88027,-8.61649 -53.36627,-18.66961 -9.87881,-6.86399 -18.68667,-17.49589 -24.80968,-29.22026 -29.2996,11.08421 -65.0824,15.52327 -97.77076,21.61 l 0.0121,-0.003 c -16.15652,3.0548 -32.18937,4.96537 -43.7595,7.2081 -7.85199,1.52218 -13.84408,3.06409 -16.95111,3.91501 15.18138,14.4213 76.92345,67.03331 167.04977,64.02901 61.49256,-2.0486 129.79927,-15.558 179.78589,-51.43133 46.60737,-33.45043 79.97656,-99.07269 87.38166,-155.96183 12.71887,-97.71466 -45.57032,-144.23659 -45.57032,-144.23659 0,0 4.20653,-8.49709 8.931,-19.95082 1.74318,2.83622 3.47662,5.68673 5.19731,8.55742 12.15767,11.73562 58.56121,62.69237 50.20393,149.98548 18.91966,-2.7453 35.54968,-9.4689 49.15898,-20.60899 C 848.05062,662.01404 662.40452,650.32091 519.41249,491.16997 403.23138,361.8592 324.65728,256.40956 260.77929,256.00042 Z m 42.60356,226.68795 c -0.0113,0.0142 -0.0121,0.0154 -0.0121,0.0154 -3.95031,5.99883 -8.0323,13.75918 -11.98675,22.18138 3.95535,-8.422 8.03923,-16.18205 11.99004,-22.18138 0.003,-0.005 0.006,-0.0101 0.009,-0.0154 z M 578.64852,296.03721 c -17.86876,-0.0612 -35.75136,3.885 -49.39961,11.85379 l -82.70848,48.29203 c 123.99101,77.85101 220.76552,168.87862 279.70919,268.28173 l 15.15457,-36.09431 c 12.23585,-29.14404 6.5546,-73.1713 -12.67899,-98.25423 -28.00538,-36.52215 -51.9378,-152.92952 -100.75948,-181.88679 -13.59352,-8.0622 -31.44844,-12.131 -49.3172,-12.19222 z m -87.29815,269.87607 c -18.47818,-0.25572 -37.06493,19.38982 -44.24077,46.9559 -5.91687,22.7336 -7.78928,52.54868 16.02373,62.8192 25.96807,11.19463 49.93244,-16.98905 56.7967,-44.93742 7.49734,-30.52499 -2.63479,-59.13865 -22.86152,-64.10588 -1.89647,-0.46568 -3.8066,-0.70534 -5.71814,-0.7318 z m -285.93056,23.29775 c 0.23642,0.003 0.47394,0.0118 0.71312,0.0264 2.8702,0.17472 5.89145,1.1835 7.97175,3.89413 2.51761,3.27986 2.08241,7.22408 1.0032,10.20121 -1.07939,2.97763 -2.84379,5.52763 -5.24674,7.41137 -4.35607,3.41833 -9.40558,3.04806 -13.63605,2.81731 -4.23134,-0.2308 -7.77836,-0.96035 -7.77836,-0.96035 l -4.89074,-0.9977 1.49766,-4.76218 c 0,0 0.81698,-2.61684 2.1899,-5.57858 1.37257,-2.96098 2.86788,-6.47437 6.69166,-8.75959 2.63299,-1.57516 5.88725,-2.81439 9.41886,-3.1942 0.66219,-0.0712 1.35647,-0.10804 2.06574,-0.0978 z m 63.11587,16.80167 h 10e-4 c 3.78611,-0.002 8.49106,0.40023 12.90205,1.9119 4.41096,1.51168 9.17675,4.58476 10.24516,10.11331 v 10e-4 c 1.06476,5.51817 -2.08612,10.20656 -5.62803,13.36574 -3.54191,3.15918 -7.8333,5.35736 -11.75271,6.56969 -8.31717,2.572 -18.18476,0.0597 -26.54468,-2.48987 -8.35992,-2.54954 -15.07547,-5.59616 -15.07547,-5.59616 l -7.15315,-3.23815 6.41037,-4.53582 c 0,0 5.57764,-3.94972 12.77239,-7.90363 7.19476,-3.95391 15.76996,-8.19061 23.82297,-8.19811 z"
       id="path940"
       inkscape:connector-curvature="0"
       sodipodi:nodetypes="ccccsccccccccccccccccccccccccccccccccccccccccccccccccccccccccccccccccccccccccscscccscccccccccscccccscc" /><mask
       height="400%"
       width="400%"
       y="-200%"
       x="-200%"
       id="_mask_xjWcL3sJAJrKzixNKYrai0hiY33ZdtE1"><rect
         id="rect942"
         style="fill:#ffffff"
         height="400%"
         width="400%"
         y="-200%"
         x="-200%" /><path
         id="path944"
         d="m 286.283,478.131 c 0,0 34.582,15.662 51.239,10.511 8.729,-2.7 20.782,-10.736 19.051,-19.707 -1.73,-8.952 -15.847,-11.175 -24.963,-11.17 -16.563,0.015 -45.327,20.366 -45.327,20.366 z m -33.502,-41.384 c 3.207,4.176 -0.456,11.859 -4.598,15.106 -6.209,4.875 -23.647,1.317 -23.647,1.317 0,0 3.974,-12.646 9.196,-15.765 5.451,-3.261 15.181,-5.698 19.049,-0.658 z"
         inkscape:connector-curvature="0"
         style="fill:#000000;fill-rule:evenodd;stroke:none" /></mask></g></g><g
   id="layer2"
   transform="translate(83.06613,629.62016)"
   inkscape:label="Squares"
   inkscape:groupmode="layer">
	
<g
   aria-label="Koopacabana"
   id="text1105"
   style="font-size:659.687px;line-height:1.25;font-family:Montserrat;-inkscape-font-specification:Montserrat;stroke-width:16.4922;fill:#ffffff"><g
     aria-label="!"
     transform="rotate(-10.571762,271.9217,-1439.4147)"
     id="text1350"
     style="font-size:747.997px;line-height:1.25;font-family:'Super Mario 256';-inkscape-font-specification:'Super Mario 256, ';fill:#ffffff;fill-opacity:1;stroke:#ffffff;stroke-width:17;stroke-linecap:round;stroke-linejoin:round;stroke-miterlimit:4;stroke-dasharray:none;stroke-opacity:1"><g
       id="path1370"
       style="opacity:1;fill:#ffffff;fill-opacity:1;stroke:#000000;stroke-opacity:1" /></g><path
     id="rect893"
     style="color:#000000;font-style:normal;font-variant:normal;font-weight:normal;font-stretch:normal;font-size:medium;line-height:1.25;font-family:Montserrat;-inkscape-font-specification:Montserrat;font-variant-ligatures:normal;font-variant-position:normal;font-variant-caps:normal;font-variant-numeric:normal;font-variant-alternates:normal;font-variant-east-asian:normal;font-feature-settings:normal;font-variation-settings:normal;text-indent:0;text-align:start;text-decoration:none;text-decoration-line:none;text-decoration-style:solid;text-decoration-color:#000000;letter-spacing:normal;word-spacing:normal;text-transform:none;writing-mode:lr-tb;direction:ltr;text-orientation:mixed;dominant-baseline:auto;baseline-shift:baseline;text-anchor:start;white-space:normal;shape-padding:0;shape-margin:0;inline-size:0;clip-rule:nonzero;display:inline;overflow:visible;visibility:visible;opacity:1;isolation:auto;mix-blend-mode:normal;color-interpolation:sRGB;color-interpolation-filters:linearRGB;solid-color:#000000;solid-opacity:1;vector-effect:none;fill:#ffffff;fill-opacity:1;fill-rule:evenodd;stroke:none;stroke-width:15;stroke-linecap:round;stroke-linejoin:round;stroke-miterlimit:4;stroke-dasharray:none;stroke-dashoffset:0;stroke-opacity:1;paint-order:stroke fill markers;color-rendering:auto;image-rendering:auto;shape-rendering:auto;text-rendering:auto;enable-background:accumulate;stop-color:#000000;stop-opacity:1"
     d="m 1403.7508,147.07812 c 0,54.2315 -1.1004,54.23718 -1.1004,109.8086 v 198.66601 c 107.6102,-6.77266 162.9196,-73.18359 165.9297,-199.23046 0,-3.01008 0.9409,-5.45465 2.8222,-7.33594 2.2576,-2.25756 4.8904,-3.38672 7.9004,-3.38672 h 142.2266 c 3.0101,0 5.6448,1.12916 7.9023,3.38672 2.2576,2.25755 3.3848,4.89031 3.3848,7.90039 -1.505,65.46912 -14.2964,120.59037 -38.3769,165.36523 -23.7044,44.3986 -54.5584,79.57913 -92.5606,105.54102 38.0022,25.96189 68.8562,61.33061 92.5606,106.10547 24.0805,44.3986 36.8719,99.33361 38.3769,164.80273 0,3.01008 -1.1272,5.64284 -3.3848,7.90039 -2.2575,2.25756 -4.8922,3.38672 -7.9023,3.38672 h -142.2266 c -3.01,0 -5.6428,-1.12916 -7.9004,-3.38672 -1.8813,-1.88129 -2.8222,-4.32586 -2.8222,-7.33594 -1.5051,-63.96408 -16.3665,-112.31426 -44.586,-145.04882 -27.8431,-32.73456 -68.2911,-50.79531 -121.3437,-54.18164 v 198.66601 c 0,3.38634 -1.1292,6.0191 -3.3867,7.90039 -2.2576,2.25756 -4.8923,3.38672 -7.9024,3.38672 h -136.0175 c -3.3864,0 -6.2073,-1.12916 -8.4649,-3.38672 -1.8813,-1.88129 -2.8223,-4.51405 -2.8223,-7.90039 V 278.20312 L 903.45117,916.41016 H 6879.209 l -35.2949,-113.75977 -29.9121,-80.70703 h -180.6036 l -30.4765,80.70703 c -1.5051,4.89137 -4.8926,7.33789 -10.1602,7.33789 h -138.2754 c -3.3863,0 -6.2073,-1.12916 -8.4648,-3.38672 -1.8813,-1.88129 -2.8223,-4.32586 -2.8223,-7.33594 v -3.95117 c 0,-1.12877 0.1882,-2.44613 0.5645,-3.95117 l 199.7929,-538.42773 c 1.8813,-4.89137 5.2688,-7.33594 10.1602,-7.33594 h 139.4023 c 4.8914,0 8.2789,2.44457 10.1602,7.33594 l 198.5723,535.69726 342.3925,-641.55469 z m 602.7922,90.05469 c 40.636,0 79.3922,7.90219 116.2656,23.70508 36.8734,15.42663 68.6664,36.30833 95.3809,62.64649 26.7144,26.33815 47.9725,57.75675 63.7753,94.2539 15.8029,36.1209 23.7051,74.12237 23.7051,114.00586 0,39.88349 -7.9022,78.07316 -23.7051,114.57031 -15.8028,36.49716 -37.0609,67.91576 -63.7753,94.25391 -26.7145,26.33815 -58.5075,47.21985 -95.3809,62.64648 -36.8734,15.42664 -75.6296,23.14063 -116.2656,23.14063 -40.2598,0 -78.8258,-7.71399 -115.6992,-23.14063 -36.8735,-15.42663 -68.6665,-36.30833 -95.3809,-62.64648 -26.7144,-26.33815 -47.9745,-57.75675 -63.7774,-94.25391 -15.8028,-36.49715 -23.7031,-74.68682 -23.7031,-114.57031 0,-39.88349 7.9003,-77.88496 23.7031,-114.00586 15.8029,-36.49715 37.063,-67.91575 63.7774,-94.2539 26.7144,-26.33816 58.5074,-47.21986 95.3809,-62.64649 36.8734,-15.80289 75.4394,-23.70508 115.6992,-23.70508 z m 614.6191,0 c 40.636,0 79.3922,7.90219 116.2656,23.70508 36.8734,15.42663 68.6665,36.30833 95.3809,62.64649 26.7144,26.33815 47.9725,57.75675 63.7754,94.2539 15.8029,36.1209 23.7051,74.12237 23.7051,114.00586 0,39.88349 -7.9022,78.07316 -23.7051,114.57031 -15.8029,36.49716 -37.061,67.91576 -63.7754,94.25391 -26.7144,26.33815 -58.5075,47.21985 -95.3809,62.64648 -36.8734,15.42664 -75.6296,23.14063 -116.2656,23.14063 -40.2597,0 -78.8258,-7.71399 -115.6992,-23.14063 -36.8734,-15.42663 -68.6665,-36.30833 -95.3809,-62.64648 -26.7144,-26.33815 -47.9744,-57.75675 -63.7773,-94.25391 -15.8029,-36.49715 -23.7031,-74.68682 -23.7031,-114.57031 0,-39.88349 7.9002,-77.88496 23.7031,-114.00586 15.8029,-36.49715 37.0629,-67.91575 63.7773,-94.2539 26.7144,-26.33816 58.5075,-47.21986 95.3809,-62.64649 36.8734,-15.80289 75.4395,-23.70508 115.6992,-23.70508 z m 1500.709,0 c 45.5274,0 88.4199,9.78413 128.6797,29.34961 40.2597,19.56549 74.1248,46.27924 101.5918,80.14258 1.8813,2.63382 2.6321,5.45477 2.2558,8.46484 -0.3762,3.01008 -1.6916,5.4566 -3.9492,7.33789 l -108.9277,85.78711 c -2.2576,1.8813 -4.8923,2.82227 -7.9024,2.82227 -2.6338,-0.37626 -4.8901,-1.69362 -6.7714,-3.95117 -13.1691,-14.67412 -29.1597,-26.71461 -47.9727,-36.1211 -18.4367,-9.40648 -37.4384,-14.10937 -57.0039,-14.10937 -37.6259,0 -69.6072,13.16966 -95.9453,39.50781 -26.3382,26.33815 -39.5078,58.13119 -39.5078,95.38086 0,37.24967 13.1696,69.04466 39.5078,95.38281 26.3381,26.33816 58.3194,39.50586 95.9453,39.50586 19.5655,0 38.7554,-4.70289 57.5684,-14.10937 18.8129,-9.40649 34.8035,-21.63518 47.9726,-36.68555 1.8813,-2.25756 4.1377,-3.38672 6.7715,-3.38672 3.0101,-0.37626 5.6448,0.37652 7.9023,2.25781 l 108.9278,86.35157 c 2.2575,1.88129 3.5729,4.32781 3.9492,7.33789 0.3762,3.01007 -0.3746,5.64283 -2.2559,7.90039 -27.8432,34.2396 -61.8965,61.1435 -102.1562,80.70898 -39.8835,19.56549 -82.7761,29.34766 -128.6797,29.34766 -40.2598,0 -78.6376,-7.71399 -115.1348,-23.14063 -36.4971,-15.42663 -68.1039,-36.30833 -94.8183,-62.64648 -26.3382,-26.33815 -47.4081,-57.75675 -63.211,-94.25391 -15.4266,-36.49715 -23.1406,-74.68682 -23.1406,-114.57031 0,-39.88349 7.714,-77.88496 23.1406,-114.00586 15.8029,-36.49715 36.8728,-67.91575 63.211,-94.2539 26.7144,-26.33816 58.3212,-47.21986 94.8183,-62.64649 36.4972,-15.80289 74.875,-23.70508 115.1348,-23.70508 z m -1173.3633,8.4668 h 267.5195 c 23.7044,0 45.529,4.13831 65.4707,12.41601 19.9418,8.27771 37.6261,20.6946 53.0528,37.25 15.4266,16.17916 27.4652,37.24905 36.1191,63.21094 8.654,25.9619 12.9824,55.68675 12.9824,89.17383 0,33.48708 -4.3284,63.40013 -12.9824,89.73828 -8.6539,25.96189 -20.6925,47.03179 -36.1191,63.21094 -15.4267,16.17915 -33.111,28.40784 -53.0528,36.68555 -19.9417,8.2777 -41.7663,12.41601 -65.4707,12.41601 h -120.2148 v 149 c 0,3.38634 -1.1272,6.0191 -3.3848,7.90039 -2.2575,2.25756 -4.8922,3.38672 -7.9023,3.38672 h -136.0176 c -3.3863,0 -6.2092,-1.12916 -8.4668,-3.38672 -1.8813,-1.88129 -2.8203,-4.51405 -2.8203,-7.90039 V 256.88672 c 0,-3.38634 0.939,-6.0191 2.8203,-7.90039 2.2576,-2.25756 5.0805,-3.38672 8.4668,-3.38672 z m 573.9824,0 h 139.4043 c 4.8914,0 8.2789,2.44457 10.1602,7.33594 l 199.793,538.99218 c 0.3762,1.12878 0.5644,2.25795 0.5644,3.38672 v 3.95117 c 0,3.01008 -1.1292,5.45465 -3.3867,7.33594 -1.8813,2.25756 -4.3259,3.38672 -7.3359,3.38672 h -138.8399 c -5.2676,0 -8.6551,-2.44652 -10.1601,-7.33789 l -29.9122,-80.70703 h -180.6035 l -30.4785,80.70703 c -1.505,4.89137 -4.8906,7.33789 -10.1582,7.33789 h -138.2754 c -3.3863,0 -6.2073,-1.12916 -8.4648,-3.38672 -1.8813,-1.88129 -2.8223,-4.32586 -2.8223,-7.33594 v -3.95117 c 0,-1.12877 0.1882,-2.44613 0.5645,-3.95117 L 3512.332,252.93555 c 1.8813,-4.89137 5.2669,-7.33594 10.1582,-7.33594 z m 1035.6524,0 h 139.4043 c 4.8913,0 8.2769,2.44457 10.1582,7.33594 l 199.7929,538.99218 c 0.3763,1.12878 0.5645,2.25795 0.5645,3.38672 v 3.95117 c 0,3.01008 -1.1272,5.45465 -3.3848,7.33594 -1.8813,2.25756 -4.3278,3.38672 -7.3379,3.38672 H 4758.5 c -5.2676,0 -8.6532,-2.44652 -10.1582,-7.33789 l -29.9141,-80.70703 h -180.6035 l -30.4765,80.70703 c -1.5051,4.89137 -4.8926,7.33789 -10.1602,7.33789 h -138.2754 c -3.3863,0 -6.2073,-1.12916 -8.4648,-3.38672 -1.8813,-1.88129 -2.8223,-4.32586 -2.8223,-7.33594 v -3.95117 c 0,-1.12877 0.1882,-2.44613 0.5645,-3.95117 l 199.7929,-538.42773 c 1.8813,-4.89137 5.2688,-7.33594 10.1602,-7.33594 z m 378.1386,0 h 253.9766 c 20.6943,0 40.0704,3.76192 58.1309,11.28711 18.0604,7.52519 34.051,18.43652 47.9726,32.73437 13.9216,13.9216 24.8349,32.17054 32.7364,54.7461 8.2777,22.1993 12.416,47.22126 12.416,75.06445 0,18.06045 -1.5056,34.05106 -4.5157,47.97266 -3.01,13.92159 -6.0192,23.32738 -9.0292,28.21875 l -4.5157,6.77343 c 0.7525,1.12878 2.2581,3.19696 4.5157,6.20704 2.6338,2.63381 6.3957,8.08948 11.2871,16.36718 5.2676,8.27771 9.9705,17.12086 14.1093,26.52735 4.5151,9.40648 8.2771,21.25878 11.2871,35.55664 3.3864,13.92159 5.0801,28.21846 5.0801,42.89258 0,28.97196 -4.1383,55.12309 -12.416,78.45117 -7.9014,23.32808 -18.8128,42.1416 -32.7344,56.43945 -13.5453,14.67411 -29.1595,25.77364 -46.8437,33.29883 -17.3079,7.90144 -35.9333,11.85156 -55.875,11.85156 h -285.5821 c -3.3863,0 -6.2072,-1.12916 -8.4648,-3.38672 -1.8813,-1.88129 -2.8223,-4.51405 -2.8223,-7.90039 V 256.88672 c 0,-3.38634 0.941,-6.0191 2.8223,-7.90039 2.2576,-2.25756 5.0785,-3.38672 8.4648,-3.38672 z m 626.4727,0 h 139.4023 c 4.8914,0 8.2789,2.44457 10.1602,7.33594 l 199.793,538.99218 c 0.3762,1.12878 0.5644,2.25795 0.5644,3.38672 v 3.95117 c 0,3.01008 -1.1291,5.45465 -3.3867,7.33594 -1.8813,2.25756 -4.3259,3.38672 -7.3359,3.38672 h -138.8399 c -5.2676,0 -8.6551,-2.44652 -10.1601,-7.33789 l -29.9121,-80.70703 h -180.6036 l -30.4765,80.70703 c -1.5051,4.89137 -4.8925,7.33789 -10.1602,7.33789 h -138.2754 c -3.3863,0 -6.2073,-1.12916 -8.4648,-3.38672 -1.8813,-1.88129 -2.8223,-4.32586 -2.8223,-7.33594 v -3.95117 c 0,-1.12877 0.1882,-2.44613 0.5645,-3.95117 l 199.793,-538.42773 c 1.8812,-4.89137 5.2687,-7.33594 10.1601,-7.33594 z m 378.1387,0 h 141.0976 c 4.1389,0 7.148,1.69179 9.0293,5.07812 l 177.2188,285.01758 V 256.88672 c 0,-3.38634 0.941,-6.0191 2.8222,-7.90039 2.2576,-2.25756 4.8904,-3.38672 7.9004,-3.38672 h 136.584 c 3.0101,0 5.6429,1.12916 7.9004,3.38672 2.2576,1.88129 3.3867,4.51405 3.3867,7.90039 v 541.81445 c 0,3.01008 -1.1291,5.64284 -3.3867,7.90039 -2.2575,2.25756 -4.8903,3.38672 -7.9004,3.38672 h -141.0976 c -4.1389,0 -7.3382,-1.88194 -9.5957,-5.64453 L 6088.1992,491.67188 v 307.02929 c 0,3.38634 -1.1291,6.0191 -3.3867,7.90039 -2.2576,2.25756 -4.8923,3.38672 -7.9023,3.38672 h -136.0176 c -3.3864,0 -6.2073,-1.12916 -8.4649,-3.38672 -1.8813,-1.88129 -2.8222,-4.51405 -2.8222,-7.90039 V 256.88672 c 0,-3.38634 0.9409,-6.0191 2.8222,-7.90039 2.2576,-2.25756 5.0785,-3.38672 8.4649,-3.38672 z m -851.6602,131.50195 c -3.7626,0 -5.6445,1.88194 -5.6445,5.64453 v 72.24219 c 0,3.76259 1.8819,5.64258 5.6445,5.64258 h 50.7949 c 11.2878,0 21.07,-4.13831 29.3477,-12.41602 8.2777,-8.2777 12.416,-18.05987 12.416,-29.34765 0,-11.66404 -4.1383,-21.44817 -12.416,-29.34961 -8.2777,-8.27771 -18.0599,-12.41602 -29.3477,-12.41602 z m -1988.3398,0.56446 c -3.3864,0 -5.0801,1.69374 -5.0801,5.08007 v 129.8086 c 0,3.76259 1.6937,5.64453 5.0801,5.64453 h 64.9043 c 16.5554,0 30.2896,-6.39664 41.2011,-19.18945 11.2878,-12.79282 16.9317,-29.9126 16.9317,-51.35938 0,-21.44678 -5.6439,-38.37836 -16.9317,-50.79492 -10.9115,-12.79282 -24.6457,-19.18945 -41.2011,-19.18945 z M 2006.543,396.85547 c -37.626,0 -69.7954,13.16966 -96.5098,39.50781 -26.7144,26.33815 -40.0723,58.13119 -40.0723,95.38086 0,37.24967 13.3579,69.04466 40.0723,95.38281 26.7144,26.33816 58.8838,39.50586 96.5098,39.50586 38.0022,0 70.3617,-13.1677 97.0761,-39.50586 26.7145,-26.33815 40.0723,-58.13314 40.0723,-95.38281 0,-37.24967 -13.3578,-69.04271 -40.0723,-95.38086 -26.7144,-26.33815 -59.0739,-39.50781 -97.0761,-39.50781 z m 614.6191,0 c -37.6259,0 -69.7953,13.16966 -96.5098,39.50781 -26.7144,26.33815 -40.0722,58.13119 -40.0722,95.38086 0,37.24967 13.3578,69.04466 40.0722,95.38281 26.7145,26.33816 58.8839,39.50586 96.5098,39.50586 38.0022,0 70.3618,-13.1677 97.0762,-39.50586 26.7144,-26.33815 40.0703,-58.13314 40.0703,-95.38281 0,-37.24967 -13.3559,-69.04271 -40.0703,-95.38086 -26.7144,-26.33815 -59.074,-39.50781 -97.0762,-39.50781 z m 970.7481,81.83594 -38.377,104.41211 h 77.8848 z m 1035.6523,0 -38.3789,104.41211 h 77.8848 z m 1004.6113,0 -38.3789,104.41211 h 77.8848 z m 1090.9629,0 -38.3789,104.41211 h 77.8848 z M 5089.2324,594.95508 c -3.7626,0 -5.6445,1.88194 -5.6445,5.64453 v 72.24219 c 0,3.76259 1.8819,5.64453 5.6445,5.64453 h 76.1914 c 11.6641,0 21.4462,-3.95207 29.3477,-11.85352 8.2777,-8.2777 12.418,-18.05987 12.418,-29.34765 0,-11.66404 -4.1403,-21.63441 -12.418,-29.91211 -7.9015,-8.27771 -17.6836,-12.41797 -29.3477,-12.41797 z"
     transform="translate(424.77587,375.37984)"
     sodipodi:nodetypes="ccccsssscccccsssscccscsssscccccccsssssccssccccscscssssssssscscsscscssssssssscscssscscccccssssssccccsccssccscccsssscsscssscscsssssssssccsscssccccsssssccsssccsscssccccsssssccssssccssccccccscccsssssssssccsscssccccsssssccsssccsssscsssssccscsssssssssssssscssssssscscssssssssssssssssssssccccccccccccccccssssssscss" /></g></g>

</svg>
