<?xml version="1.0" encoding="UTF-8" standalone="no"?>
<!-- Created with Inkscape (http://www.inkscape.org/) -->

<svg
   width="155.15265"
   height="64.022812"
   viewBox="0 0 155.15265 64.02281"
   version="1.1"
   id="SVGRoot"
   sodipodi:docname="pkmn_archive.svg"
   inkscape:version="1.1 (c68e22c387, 2021-05-23)"
   xmlns:inkscape="http://www.inkscape.org/namespaces/inkscape"
   xmlns:sodipodi="http://sodipodi.sourceforge.net/DTD/sodipodi-0.dtd"
   xmlns="http://www.w3.org/2000/svg"
   xmlns:svg="http://www.w3.org/2000/svg">
  <sodipodi:namedview
     id="namedview11737"
     pagecolor="#505050"
     bordercolor="#ffffff"
     borderopacity="1"
     inkscape:pageshadow="0"
     inkscape:pageopacity="0"
     inkscape:pagecheckerboard="1"
     inkscape:document-units="px"
     showgrid="false"
     inkscape:zoom="5.3664983"
     inkscape:cx="61.492612"
     inkscape:cy="37.547762"
     inkscape:window-width="2560"
     inkscape:window-height="1009"
     inkscape:window-x="-8"
     inkscape:window-y="-8"
     inkscape:window-maximized="1"
     inkscape:current-layer="layer1"
     inkscape:snap-page="false" />
  <defs
     id="defs11732" />
  <g
     inkscape:label="Layer 1"
     inkscape:groupmode="layer"
     id="layer1"
     transform="translate(-6.5982063,58.523876)">
    <g
       aria-label="PKMN
ARCHIVE"
       id="text21680"
       style="font-size:32.2966px;font-family:Arial;-inkscape-font-specification:Arial;text-align:end;text-anchor:end;fill:#ffffff">
      <path
         style="color:#000000;-inkscape-font-specification:'Montserrat Ultra-Bold';-inkscape-stroke:none"
         d="m 45.33791,-58.523876 q 3.068177,0 5.328939,1.033491 2.260762,1.001195 3.488033,2.906694 1.227271,1.873203 1.227271,4.424634 0,2.551432 -1.227271,4.424635 -1.227271,1.873202 -3.488033,2.906694 -2.260762,1.001194 -5.328939,1.001194 h -3.940185 v 5.910278 h -6.394727 v -22.60762 z m -0.387559,11.659073 q 1.970093,0 2.971287,-0.839712 1.001195,-0.872008 1.001195,-2.454542 0,-1.582533 -1.001195,-2.454541 -1.001194,-0.872009 -2.971287,-0.872009 h -3.552626 v 6.620804 z"
         id="path28024" />
      <path
         style="color:#000000;-inkscape-font-specification:'Montserrat Ultra-Bold';-inkscape-stroke:none"
         d="m 67.202685,-44.119592 -2.389948,2.551431 v 5.651905 h -6.330134 v -22.60762 h 6.330134 v 9.398311 l 8.752378,-9.398311 h 7.040659 l -9.236827,10.011946 9.721276,12.595674 h -7.428218 z"
         id="path28026" />
      <path
         style="color:#000000;-inkscape-font-specification:'Montserrat Ultra-Bold';-inkscape-stroke:none"
         d="m 103.18106,-35.916256 -0.0646,-11.982039 -5.813389,9.753574 h -2.8421 l -5.781092,-9.430608 v 11.659073 h -5.910278 v -22.60762 h 5.264346 l 7.944964,13.047826 7.751179,-13.047826 h 5.26435 l 0.0646,22.60762 z"
         id="path28028" />
      <path
         style="color:#000000;-inkscape-font-specification:'Montserrat Ultra-Bold';-inkscape-stroke:none"
         d="m 135.09006,-58.523876 v 22.60762 h -5.26435 l -9.97965,-12.046632 v 12.046632 h -6.26554 v -22.60762 h 5.26435 l 9.97965,12.046632 v -12.046632 z"
         id="path28030" />
      <path
         style="color:#000000;-inkscape-font-specification:'Montserrat Ultra-Bold';-inkscape-stroke:none"
         d="M 24.458226,0.65444731 H 14.898433 L 13.12212,5.046785 H 6.5982063 l 9.9796497,-22.60762 h 6.297837 l 10.011946,22.60762 h -6.6531 z m -1.873203,-4.71530361 -2.906694,-7.2344387 -2.906694,7.2344387 z"
         id="path28032" />
      <path
         style="color:#000000;-inkscape-font-specification:'Montserrat Ultra-Bold';-inkscape-stroke:none"
         d="M 44.578986,-0.96038271 H 41.090953 V 5.046785 h -6.394727 v -22.60762 h 10.334912 q 3.068177,0 5.328939,1.033491 2.260762,1.001195 3.488033,2.906694 1.227271,1.873203 1.227271,4.4246342 0,2.4545416 -1.162678,4.2954479 -1.130381,1.8086096 -3.261957,2.8421008 l 4.876787,7.1052521 h -6.846879 z m 4.037075,-8.23563309 q 0,-1.5825332 -1.001195,-2.4545412 -1.001195,-0.872009 -2.971287,-0.872009 h -3.552626 v 6.6208034 h 3.552626 q 1.970092,0 2.971287,-0.8397116 1.001195,-0.8720082 1.001195,-2.4545416 z"
         id="path28034" />
      <path
         style="color:#000000;-inkscape-font-specification:'Montserrat Ultra-Bold';-inkscape-stroke:none"
         d="m 69.867218,5.4989374 q -3.552626,0 -6.394727,-1.4856437 -2.809804,-1.5179402 -4.424634,-4.198558 -1.61483,-2.6806178 -1.61483,-6.0717609 0,-3.391143 1.61483,-6.0717608 1.61483,-2.680618 4.424634,-4.166261 2.842101,-1.517941 6.394727,-1.517941 3.100474,0 5.587312,1.098085 2.486838,1.098084 4.133965,3.165067 l -4.069372,3.681812 q -2.196169,-2.648321 -5.328939,-2.648321 -1.840906,0 -3.294253,0.807415 -1.42105,0.807415 -2.228465,2.2930584 -0.775119,1.453347 -0.775119,3.3588464 0,1.9054995 0.775119,3.3911431 0.807415,1.453347 2.228465,2.260762 1.453347,0.80741501 3.294253,0.80741501 3.13277,0 5.328939,-2.64832121 l 4.069372,3.6818124 Q 77.941368,3.3027685 75.45453,4.4008529 72.967692,5.4989374 69.867218,5.4989374 Z"
         id="path28036" />
      <path
         style="color:#000000;-inkscape-font-specification:'Montserrat Ultra-Bold';-inkscape-stroke:none"
         d="M 103.94009,-17.560835 V 5.046785 H 97.545368 V -3.7701869 H 88.825286 V 5.046785 h -6.394727 v -22.60762 h 6.394727 v 8.4940056 h 8.720082 v -8.4940056 z"
         id="path28038" />
      <path
         style="color:#000000;-inkscape-font-specification:'Montserrat Ultra-Bold';-inkscape-stroke:none"
         d="m 108.46161,-17.560835 h 6.39473 v 22.60762 h -6.39473 z"
         id="path28040" />
      <path
         style="color:#000000;-inkscape-font-specification:'Montserrat Ultra-Bold';-inkscape-stroke:none"
         d="m 142.27608,-17.560835 -9.68898,22.60762 h -6.29783 l -9.65669,-22.60762 h 6.91148 l 6.13635,14.7272495 6.26554,-14.7272495 z"
         id="path28042" />
      <path
         style="color:#000000;-inkscape-font-specification:'Montserrat Ultra-Bold';-inkscape-stroke:none"
         d="M 161.75086,0.1054051 V 5.046785 h -18.15069 v -22.60762 H 161.331 v 4.94138 h -11.4007 v 3.8109984 h 10.04424 v 4.7798969 H 149.9303 v 4.1339648 z"
         id="path28044" />
    </g>
  </g>
</svg>
